# xmcd CD database file
#
# Track frame offsets:
#	150
#	18503
#	43044
#	53727
#	74622
#	88715
#	110057
#	122901
#	132428
#	150321
#	167130
#	181509
#	194128
#	216674
#	230558
#
# Disc length: 3269 seconds
#
# Revision: 1
# Processed by: cddbd v1.5.2PL0 Copyright (c) Steve Scherf et al.
# Submitted via: CDex 1.51
#
DISCID=df0cc30f
DTITLE=Nancy Mareen - I love country and more
DYEAR=2009
DGENRE=Country
TTITLE0=01 Nancy Mareen - Mothers house
TTITLE1=02 Nancy Mareen - Remembers Patsy Cline
TTITLE2=03 Nancy Mareen - Give me all
TTITLE3=04 Nancy Mareen - You will find a new girlfiend
TTITLE4=05 Nancy Mareen - She needs true love
TTITLE5=06 Nancy Mareen - From hell to paradise
TTITLE6=07 Nancy Mareen - I love my home
TTITLE7=08 Nancy Mareen - Western Romance
TTITLE8=09 Nancy Mareen - Don´t let my mother die
TTITLE9=10 Nancy Mareen - Austin Texas
TTITLE10=11 Nancy Mareen - Down by the river
TTITLE11=12 Nancy Mareen - I want to be a country star
TTITLE12=13 Nancy Mareen - I´m so thankful to my man
TTITLE13=14 Nancy Mareen - Paradise of Horses
TTITLE14=15 Nancy Mareen - I love country and more
EXTD=YEAR: 2009
EXTT0=
EXTT1=
EXTT2=
EXTT3=
EXTT4=
EXTT5=
EXTT6=
EXTT7=
EXTT8=
EXTT9=
EXTT10=
EXTT11=
EXTT12=
EXTT13=
EXTT14=
PLAYORDER=
